# xmcd
# 
# Track frame offsets:
#     150
#     19280
#     48907
#     72540
#     90375
#     112922
#     133895
#     159305
#     197867
#     229912
#     247875
#     255532
#     263237
#     275717
# 
# Disc length: 3945
# 
# Revision: 9
# Processed by: cddbd v1.5.2PL0 Copyright (c) Steve Scherf et al.
# Submitted via: fre:ac v1.0.31
# 
DISCID=c50f670e
DTITLE=The Rippingtons - Live Across America
DYEAR=2002
DGENRE=Jazz
TTITLE0=Road Warriors
TTITLE1=Summer Lovers
TTITLE2=Welcome to the St. James Club
TTITLE3=Hideaway
TTITLE4=Black Diamond
TTITLE5=South Beach Mambo
TTITLE6=She Likes to Watch
TTITLE7=Jewel Thieves
TTITLE8=Rain
TTITLE9=Avenida del Mar
TTITLE10=Purple Haze
TTITLE11=Fire
TTITLE12=Star Spangled Banner
TTITLE13=Are We There Yet?
EXTD=YEAR: 2002
EXTT0=
EXTT1=
EXTT2=
EXTT3=
EXTT4=
EXTT5=
EXTT6=
EXTT7=
EXTT8=
EXTT9=
EXTT10=
EXTT11=
EXTT12=
EXTT13=
PLAYORDER=
